<svg width="16" height="16" viewBox="0 0 16 16" fill="none" xmlns="http://www.w3.org/2000/svg">
<g id="Icon">
<path id="Vector" d="M10.6667 14.5001H4C2.388 14.5001 1.5 13.6121 1.5 12.0001V5.33348C1.5 3.72148 2.388 2.83348 4 2.83348H6C6.276 2.83348 6.5 3.05748 6.5 3.33348C6.5 3.60948 6.276 3.83348 6 3.83348H4C2.94867 3.83348 2.5 4.28215 2.5 5.33348V12.0001C2.5 13.0515 2.94867 13.5001 4 13.5001H10.6667C11.718 13.5001 12.1667 13.0515 12.1667 12.0001V10.0001C12.1667 9.72415 12.3907 9.50015 12.6667 9.50015C12.9427 9.50015 13.1667 9.72415 13.1667 10.0001V12.0001C13.1667 13.6121 12.2787 14.5001 10.6667 14.5001ZM13.72 3.35348L12.6466 2.28016C12.2666 1.90682 11.66 1.90681 11.28 2.28681L10.38 3.19349L12.8067 5.62014L13.7133 4.72014C14.0933 4.34014 14.0933 3.73348 13.72 3.35348ZM9.67334 3.90015L5.33333 8.26016V10.6668H7.73999L12.1 6.32681L9.67334 3.90015Z" fill="#6B6B6B"/>
</g>
</svg>
