<svg id="svg" version="1.1" xmlns="http://www.w3.org/2000/svg" xmlns:xlink="http://www.w3.org/1999/xlink" width="400" height="400" viewBox="0, 0, 400,400"><g id="svgg"><path id="path0" d="M193.517 2.050 C 187.348 2.357,185.760 2.451,183.415 2.645 C 74.529 11.677,-6.506 107.366,2.495 216.283 C 11.844 329.413,114.773 411.753,227.139 395.991 C 331.163 381.399,405.701 288.213,397.053 183.566 C 388.618 81.502,303.721 2.785,201.282 2.046 C 197.591 2.019,194.097 2.021,193.517 2.050 M210.403 40.778 C 234.262 42.510,257.463 49.333,276.917 60.339 L 278.599 61.291 245.517 163.514 C 227.323 219.737,212.263 266.381,212.053 267.169 C 209.309 277.421,215.404 287.876,225.782 290.721 L 227.591 291.217 278.967 291.257 C 307.224 291.279,330.343 291.337,330.343 291.387 C 330.343 291.532,327.740 295.082,325.833 297.538 C 288.344 345.811,227.076 368.456,167.370 356.104 C 137.011 349.824,109.208 334.775,87.062 312.635 C 82.671 308.245,75.860 300.644,75.931 300.213 C 76.037 299.564,112.567 186.990,112.644 187.072 C 112.702 187.134,119.036 207.539,126.720 232.416 C 142.012 281.929,141.142 279.186,142.170 281.140 C 149.598 295.273,170.580 294.390,176.789 279.683 C 177.471 278.069,225.796 128.637,226.187 126.932 C 227.107 122.930,226.389 117.741,224.392 113.953 C 217.854 101.551,200.438 100.181,192.002 111.404 C 189.963 114.117,190.804 111.683,174.524 161.999 L 159.550 208.279 158.939 206.326 C 158.603 205.251,152.282 184.798,144.892 160.874 C 130.559 114.473,131.017 115.923,130.178 114.257 C 123.092 100.186,102.716 100.308,95.780 114.465 C 94.995 116.066,97.290 109.042,71.610 188.428 C 59.800 224.936,50.097 254.806,50.049 254.806 C 50.001 254.806,49.340 252.957,48.581 250.697 C 33.024 204.384,39.582 153.315,66.301 112.703 C 95.050 69.006,141.509 42.792,194.271 40.497 C 196.955 40.380,207.439 40.563,210.403 40.778 M318.114 93.097 C 356.710 135.987,369.339 196.185,351.106 250.358 L 350.294 252.770 303.672 252.808 C 278.029 252.829,257.075 252.795,257.107 252.733 C 257.139 252.671,269.305 215.078,284.142 169.193 L 311.119 85.767 313.534 88.229 C 314.862 89.582,316.923 91.773,318.114 93.097 " stroke="none" fill="#000000" fill-rule="evenodd"></path></g></svg>