<svg width="257" height="257" viewBox="0 0 257 257" fill="none" xmlns="http://www.w3.org/2000/svg">
<g style="mix-blend-mode:darken">
<path d="M83.9755 21.8564C80.7174 21.3541 80.5801 21.2951 82.1133 21.0609C85.0514 20.6118 91.9891 21.2239 96.77 22.3538C107.931 24.9906 118.087 31.7455 128.928 43.7422L131.808 46.9292L135.928 46.2709C153.285 43.4986 170.943 45.7019 185.712 52.483C189.775 54.3485 196.181 58.0621 196.981 59.0164C197.236 59.3205 197.705 61.2782 198.022 63.3673C199.119 70.5946 198.569 76.1344 196.346 80.2721C195.135 82.5237 195.068 83.2373 195.881 85.1643C196.531 86.7019 198.342 87.84 200.135 87.8376C203.805 87.8327 207.755 81.9358 209.586 73.7309L210.313 70.4718L211.753 72.0934C219.654 80.9898 225.859 93.1223 226.925 101.758L227.202 104.01L225.874 101.963C223.589 98.4407 221.293 96.0429 218.352 94.1089C213.051 90.623 207.447 89.4366 192.603 88.6592C179.198 87.9571 171.61 86.819 164.087 84.3807C151.287 80.2328 144.834 74.7085 129.629 54.8811C122.875 46.0744 118.701 41.2019 114.549 37.278C105.114 28.3619 95.843 23.6859 83.9755 21.8564Z" fill="black"/>
<path d="M200.005 41.5196C200.342 35.6183 201.148 31.7259 202.766 28.1712C203.407 26.7641 204.007 25.6125 204.1 25.6125C204.193 25.6125 203.914 26.6511 203.481 27.9202C202.304 31.3701 202.111 36.0887 202.922 41.5786C203.951 48.5443 204.536 49.5493 211.943 57.0738C215.418 60.6031 219.459 65.0544 220.924 66.9654L223.588 70.4403L220.924 67.9569C217.666 64.9201 210.175 58.9975 208.52 58.1509C207.41 57.5831 207.245 57.5929 206.561 58.2701C205.93 58.894 205.797 59.8314 205.709 64.2635C205.573 71.171 204.626 75.6047 202.34 80.0379C201.103 82.4357 200.908 81.924 202.027 79.2175C202.863 77.1968 202.948 76.3084 202.941 69.6215C202.929 56.1859 201.324 52.9558 191.912 47.4225C189.528 46.0208 185.599 43.9992 183.182 42.9299C180.765 41.8606 178.845 40.9293 178.915 40.8597C179.182 40.596 188.36 43.2587 192.054 44.671C197.549 46.772 198.456 47.0443 199.124 46.7908C199.571 46.621 199.788 45.3261 200.005 41.5196Z" fill="black"/>
<path d="M90.304 64.5042C83.6899 55.4539 79.5977 41.5777 80.4836 31.2047L80.7576 27.9947L82.2631 28.2678C85.0903 28.7803 89.9651 30.5837 92.2477 31.9617C98.5117 35.7427 101.224 40.7209 103.982 53.504C104.791 57.2482 105.851 61.4854 106.339 62.9199C107.124 65.2288 110.092 70.6221 112.505 74.1248C114.243 76.6474 113.089 77.8428 109.247 77.4981C103.379 76.9716 95.4313 71.5198 90.304 64.5042Z" fill="black"/>
<path d="M191.983 131.861C161.073 119.492 150.187 108.755 150.187 90.6394C150.187 87.9735 150.279 85.7923 150.392 85.7923C150.504 85.7923 151.7 86.672 153.049 87.7475C159.317 92.7441 166.336 94.8782 185.766 97.6956C197.2 99.3536 203.635 100.693 209.57 102.649C228.436 108.868 240.108 121.487 242.891 138.676C243.7 143.671 243.226 153.037 241.915 157.974C240.879 161.873 237.72 168.901 236.882 169.17C236.65 169.245 236.422 168.36 236.362 167.156C236.045 160.701 232.763 154.418 227.252 149.711C220.986 144.359 212.567 140.098 191.983 131.861Z" fill="black"/>
<path d="M170.283 137C169.896 134.709 169.224 131.784 168.79 130.499L168.002 128.164L169.467 129.798C171.494 132.059 173.096 134.953 174.454 138.808C175.49 141.75 175.606 142.624 175.599 147.405C175.591 152.098 175.461 153.082 174.504 155.73C172.996 159.905 171.123 162.866 167.981 166.044C162.335 171.755 155.076 174.917 144.6 176.229C142.779 176.457 137.472 176.841 132.806 177.082C121.048 177.69 113.309 178.945 106.355 181.372C105.356 181.721 104.463 181.933 104.372 181.843C104.091 181.565 108.825 178.76 112.736 176.888C118.25 174.248 123.739 172.807 136.037 170.771C142.113 169.766 148.387 168.546 149.98 168.06C165.025 163.475 172.758 151.644 170.283 137Z" fill="black"/>
<path d="M184.452 162.01C180.346 153.236 179.403 144.764 181.652 136.863C181.893 136.019 182.28 135.328 182.513 135.328C182.746 135.328 183.715 135.849 184.666 136.485C186.559 137.751 190.354 139.884 200.466 145.363C213.084 152.201 220.278 157.495 225.171 163.545C229.455 168.842 232.107 174.876 233.383 182.233C234.105 186.401 233.682 196.429 232.606 200.625C229.214 213.857 221.329 224.251 210.083 230.316C208.435 231.205 206.956 231.934 206.796 231.937C206.636 231.941 207.236 230.424 208.13 228.566C211.913 220.706 212.344 213.06 209.484 204.55C207.732 199.339 204.161 192.981 196.952 182.235C188.569 169.741 186.514 166.416 184.452 162.01Z" fill="black"/>
<path d="M68.3533 209.353C79.8236 199.727 94.0954 192.889 107.096 190.79C112.698 189.885 122.032 190.244 127.22 191.564C135.536 193.679 142.975 198.417 146.844 204.061C150.625 209.578 152.247 214.386 153.936 225.082C154.602 229.302 155.327 233.539 155.546 234.498C156.815 240.042 159.283 244.473 162.341 246.698C167.199 250.232 175.564 250.452 183.793 247.262C185.189 246.72 186.402 246.346 186.487 246.43C186.785 246.725 182.642 249.482 179.719 250.933C175.785 252.886 172.658 253.641 168.502 253.641C160.965 253.641 154.708 249.83 149.487 242.06C148.46 240.531 146.15 235.951 144.355 231.883C138.843 219.386 136.121 215.579 129.72 211.413C124.15 207.788 116.966 207.138 111.562 209.772C104.464 213.231 102.483 222.248 107.567 227.961C109.588 230.232 113.356 232.191 116.438 232.572C122.202 233.285 127.156 228.926 127.156 223.141C127.156 219.386 125.703 217.242 122.047 215.602C117.053 213.362 111.685 215.98 111.711 220.643C111.722 222.632 112.593 223.88 114.598 224.782C115.885 225.361 115.915 225.406 114.866 225.19C110.283 224.245 109.21 218.755 112.894 215.11C117.317 210.734 126.464 212.665 129.605 218.638C130.925 221.147 131.078 226.143 129.927 229.16C127.353 235.913 119.845 239.464 112.229 237.532C107.044 236.216 104.933 234.791 98.681 228.391C87.8178 217.269 83.6005 215.114 67.9395 212.684L64.9384 212.219L68.3533 209.353Z" fill="black"/>
<path fill-rule="evenodd" clip-rule="evenodd" d="M17.3818 10.2932C53.6598 54.0557 78.6463 72.1114 81.423 75.9261C83.7156 79.0759 82.8528 81.9076 78.9252 84.1269C76.7411 85.3608 72.2507 86.611 70.0024 86.611C67.4595 86.611 66.5864 85.636 66.5864 85.636C65.112 84.2462 64.2816 84.4893 56.7099 71.1311C46.1981 54.9194 37.401 41.471 37.161 41.2459C36.6061 40.7251 36.6156 40.7427 55.6381 74.5715C58.7116 81.6223 56.2495 84.2104 56.2495 85.2146C56.2495 87.2575 55.6887 88.3313 53.1532 91.1421C48.9265 95.8288 47.037 101.095 45.673 111.993C44.144 124.21 39.8444 132.84 27.9288 147.61C20.9539 156.255 19.8126 157.84 18.0526 161.325C15.8357 165.713 15.2262 168.171 14.9791 173.712C14.718 179.571 15.2266 183.356 17.0275 188.958C18.6042 193.862 20.2499 197.1 24.4573 203.577C28.0881 209.166 30.1788 213.32 30.1788 214.945C30.1788 216.237 30.4271 216.239 36.0534 214.977C49.5179 211.954 60.451 206.639 66.5999 200.126C70.4054 196.094 71.2989 193.868 71.3279 188.344C71.3469 184.73 71.219 183.973 70.2362 181.894C68.6363 178.511 65.7239 175.698 59.3047 171.336C50.8938 165.621 47.3014 161.021 46.3091 154.694C45.4951 149.502 46.4394 145.839 51.0924 136.147C55.9085 126.114 57.1019 121.839 57.9093 111.726C58.4307 105.193 59.1528 102.616 61.0415 100.548C63.0113 98.3911 64.7845 97.6608 69.6593 96.9988C77.6068 95.9197 82.6674 93.876 86.8271 90.0663C90.4356 86.7613 91.9456 83.5767 92.1774 78.7828L92.3533 75.149L90.3367 72.8123C83.034 64.3494 12.4913 3.64062 12.0418 3.64062C11.9458 3.64062 14.3489 6.63447 17.3818 10.2932ZM34.2781 180.342C35.9292 177.435 35.0519 173.699 32.2901 171.874C29.6805 170.149 25.6267 170.961 25.6267 173.209C25.6267 173.895 26.0083 174.394 26.8682 174.834C28.3162 175.574 28.4213 176.407 27.282 178.109C26.1283 179.832 26.2214 181.348 27.5448 182.378C29.6776 184.038 32.6969 183.125 34.2781 180.342Z" fill="black"/>
<path fill-rule="evenodd" clip-rule="evenodd" d="M97.3688 98.9049C93.6378 100.044 90.011 103.974 88.8883 108.095C88.2034 110.609 88.5921 115.019 89.6179 116.381C91.2753 118.58 92.878 119.16 97.2177 119.13C105.714 119.071 113.101 115.449 113.959 110.921C114.663 107.21 111.419 102.066 106.951 99.808C104.645 98.6433 99.7412 98.1811 97.3688 98.9049ZM107.301 106.624C108.611 104.774 108.038 102.774 105.81 101.421C101.566 98.846 95.1486 100.977 95.1486 104.962C95.1486 106.945 98.4952 109.109 101.563 109.109C103.605 109.109 106.399 107.899 107.301 106.624Z" fill="black"/>
</g>
</svg>
