<svg width="136" height="36" viewBox="0 0 136 36" fill="none" xmlns="http://www.w3.org/2000/svg">
<path fill-rule="evenodd" clip-rule="evenodd" d="M10.9895 12.9606C10.9394 13.1543 10.8518 13.3361 10.7317 13.4958C10.5083 13.7871 10.2126 14.0143 9.87419 14.1546C9.56984 14.2863 9.24755 14.3715 8.91807 14.4072C8.8503 14.4158 8.78009 14.4212 8.71207 14.4264L8.70098 14.4272C8.4923 14.4352 8.29164 14.51 8.12838 14.6409C7.96512 14.7717 7.84783 14.9515 7.7937 15.1542C7.76891 15.255 7.75048 15.3572 7.73852 15.4604C7.71956 15.6159 7.7098 15.7752 7.69924 15.9474C7.69167 16.071 7.68368 16.2013 7.67159 16.3418C7.60071 16.9139 7.43596 17.4703 7.18403 17.9883C7.13254 18.0972 7.08007 18.2028 7.02853 18.3064L7.0285 18.3065C6.75225 18.8622 6.5027 19.3642 6.57435 20.0365C6.63044 20.5545 6.89457 20.9016 7.24554 21.2596C7.41222 21.4309 7.63325 21.5772 7.86269 21.7291L7.86271 21.7291C8.50485 22.1543 9.21283 22.623 8.97958 23.8039C8.78872 24.7608 7.20935 25.7649 4.98956 26.1156C5.20488 26.0828 4.73061 25.2699 4.67792 25.1796L4.67477 25.1742C4.61357 25.0779 4.55087 24.9831 4.48828 24.8883C4.30756 24.6149 4.12773 24.3428 3.98731 24.0411C3.61644 23.2533 3.44457 22.3419 3.59654 21.4786C3.7342 20.6973 4.24838 20.0732 4.74345 19.4722C4.82415 19.3743 4.90435 19.2769 4.98232 19.1796C5.64446 18.3536 6.33916 17.2714 6.49294 16.1991C6.50591 16.106 6.51749 16.0044 6.52967 15.8975C6.55147 15.7063 6.5752 15.498 6.61234 15.2905C6.66754 14.9321 6.7793 14.5848 6.94341 14.2618C7.05543 14.05 7.20292 13.8591 7.37941 13.6975C7.47143 13.6117 7.53214 13.4974 7.55182 13.3729C7.5715 13.2483 7.54901 13.1208 7.48796 13.0106L3.94931 6.61705L9.03204 12.9179C9.08993 12.9909 9.16309 13.0502 9.24635 13.0916C9.32961 13.1331 9.42093 13.1556 9.51382 13.1575C9.60671 13.1595 9.6989 13.141 9.78384 13.1032C9.86879 13.0654 9.94442 13.0092 10.0054 12.9388C10.0697 12.8634 10.1062 12.7679 10.1087 12.6686C10.1112 12.5693 10.0795 12.4721 10.0189 12.3936C9.78262 12.0902 9.5367 11.7827 9.29193 11.4767L9.29184 11.4766C9.19276 11.3527 9.09386 11.229 8.99586 11.106L7.71681 9.51576L5.14967 6.34081L0 0L5.47893 6.05639L8.21161 9.09141L9.57478 10.6125C9.69992 10.7541 9.82507 10.8944 9.95021 11.0347L9.95053 11.0351C10.2776 11.4017 10.6046 11.7683 10.9316 12.1573L11.0058 12.2482L11.0221 12.389C11.0441 12.58 11.0331 12.7734 10.9895 12.9606ZM24.0534 15.0976L24.0588 15.1058C24.0579 14.4279 23.64 13.3093 22.7942 12.2334L22.7743 12.2071C22.5138 11.8836 22.2299 11.5799 21.925 11.2984C21.868 11.243 21.8065 11.1884 21.744 11.1339C21.3533 10.7916 20.9262 10.4935 20.4704 10.2452L20.4379 10.2289C19.0059 9.44557 17.1425 9.04212 14.845 9.49646C14.5363 9.12013 14.204 8.7641 13.8499 8.43057C13.3077 7.91151 12.6694 7.50431 11.9712 7.23202C11.2792 6.97757 10.5382 6.88678 9.80564 6.96668C10.5118 7.03054 11.1996 7.22785 11.8328 7.54824C12.4443 7.87735 12.995 8.3095 13.461 8.82585C13.9332 9.35293 14.3771 9.90498 14.7907 10.4797L14.8945 10.6154C15.2992 11.1448 15.7111 11.6838 16.2244 12.1635C16.507 12.4305 16.8222 12.6605 17.1624 12.8477C17.2529 12.894 17.3443 12.9377 17.4338 12.9758C17.5234 13.014 17.6075 13.0494 17.6979 13.0821C17.8725 13.1503 18.0534 13.2066 18.2343 13.2584C18.958 13.4656 19.6988 13.5401 20.4225 13.5801C20.523 13.5854 20.6233 13.5904 20.7232 13.5953L20.7239 13.5954C20.9823 13.6081 21.2384 13.6208 21.4908 13.6392C21.8365 13.6598 22.1794 13.714 22.5147 13.8009C23.0185 13.9328 23.462 14.2343 23.7712 14.6551C23.8763 14.7952 23.9706 14.9431 24.0534 15.0976ZM80.6074 10.7274C78.2297 11.3265 77.1153 13.1908 77.791 15.4385C78.0805 16.4016 78.9712 17.3732 80.2306 18.0998C82.5004 19.4093 83.1688 19.9396 83.5569 20.7386C83.8808 21.4051 83.9089 21.6279 83.7456 22.2321C83.3623 23.6503 82.3616 24.4325 80.93 24.4325C79.4687 24.4325 78.4426 23.6128 78.2136 22.2626C78.1216 21.7196 78.0083 21.5462 77.746 21.5462C77.4326 21.5462 77.3998 21.6898 77.3998 23.0651V24.5838L78.3503 24.9067C79.8344 25.4107 81.9454 25.3505 83.205 24.7682C85.6589 23.6337 86.5993 21.3818 85.498 19.2777C85.0861 18.4907 84.0524 17.6122 82.2814 16.5439C80.42 15.421 79.5905 14.6042 79.4688 13.774C79.282 12.4983 80.4294 11.4425 81.9977 11.447C83.226 11.4504 83.7532 11.7412 84.1885 12.6554C84.4612 13.2278 84.6563 13.417 84.9791 13.4221C85.3361 13.4275 85.3893 13.3609 85.2983 13.0227C85.2384 12.7995 85.188 12.24 85.1868 11.7793C85.185 11.1942 85.1004 10.9096 84.9062 10.8354C84.3772 10.633 81.2893 10.5555 80.6074 10.7274ZM32.8659 11.2639C32.8659 11.5234 32.9867 11.6246 33.2964 11.6246C34.1704 11.6246 34.2173 11.8768 34.3142 17.1086C34.3987 21.6792 34.43 22.0441 34.7954 22.7188C35.3187 23.6851 36.0285 24.3282 37.1202 24.8252C37.868 25.1656 38.3401 25.2377 39.8357 25.2408C41.4581 25.2439 41.7537 25.1915 42.6833 24.7366C43.2537 24.4575 43.9643 23.9344 44.2623 23.5741C45.2954 22.3253 45.4048 21.7217 45.5219 16.6237C45.6347 11.7145 45.65 11.6347 46.4886 11.6273C46.6837 11.6257 46.8054 11.4861 46.8054 11.2639C46.8054 10.9231 46.6846 10.9031 44.633 10.9031C42.6051 10.9031 42.4606 10.9263 42.4606 11.2525C42.4606 11.5141 42.6073 11.616 43.0448 11.6584C44.0063 11.7513 44.0843 12.1208 44.0872 16.5977C44.0903 21.1366 43.9353 22.0098 42.9634 22.9289C42.0596 23.7838 41.3404 24.0717 40.109 24.0717C38.3403 24.0717 37.0869 23.2484 36.6759 21.8168C36.5376 21.3353 36.4867 19.5648 36.5229 16.4952L36.5771 11.8952L37.2107 11.6916C37.5592 11.5796 37.8706 11.3564 37.9028 11.1955C37.9546 10.937 37.6662 10.9031 35.4136 10.9031C32.9867 10.9031 32.8659 10.9202 32.8659 11.2639ZM49.7019 11.2639C49.7019 11.5431 49.8227 11.6246 50.2365 11.6246C51.1583 11.6246 51.6775 11.979 51.8859 12.7501C52.0045 13.1887 52.0555 15.283 52.0208 18.2762C51.9587 23.6207 51.8853 23.9703 50.78 24.1906C50.4155 24.2633 50.245 24.4051 50.245 24.6354C50.245 24.95 50.4221 24.9736 52.7795 24.9736C55.0954 24.9736 55.3139 24.9459 55.3139 24.6502C55.3139 24.42 55.082 24.2651 54.5087 24.1123C53.7967 23.9225 53.6815 23.8189 53.5139 23.2181C53.299 22.4469 53.2481 14.3222 53.4583 14.3457C53.5329 14.354 54.2351 15.1049 55.0188 16.0143C55.8023 16.9236 57.9461 19.3115 59.7827 21.3207C62.6573 24.4653 63.195 24.9736 63.6466 24.9736H64.1713L64.2232 18.5786C64.26 14.038 64.3358 12.1231 64.4845 11.975C64.5998 11.8602 64.9664 11.7109 65.2991 11.6431C65.6523 11.5711 65.9043 11.41 65.9043 11.2565C65.9043 11.0411 65.453 10.9842 63.4151 10.9431C61.0184 10.8948 60.9259 10.9065 60.9259 11.2588C60.9259 11.5265 61.0445 11.6246 61.3684 11.6246C61.6118 11.6246 62.0394 11.8204 62.3188 12.0598L62.8267 12.4949L62.8838 16.8401C62.9162 19.2935 62.8709 21.1854 62.7802 21.1854C62.6919 21.1854 62.1392 20.6375 61.5519 19.9677C60.9648 19.298 59.2928 17.4513 57.8364 15.8639C56.38 14.2764 54.7889 12.5174 54.3008 11.9551L53.4131 10.9327L51.5575 10.9179C49.8176 10.904 49.7019 10.9256 49.7019 11.2639ZM68.7103 11.2639C68.7103 11.539 68.831 11.6246 69.2188 11.6246C69.4985 11.6246 69.8854 11.7397 70.0787 11.8804C70.4104 12.122 70.4334 12.4334 70.4868 17.4275C70.5536 23.6637 70.4987 24.0132 69.4275 24.1839C68.8881 24.2699 68.7103 24.3819 68.7103 24.6359C68.7103 24.9509 68.8928 24.9736 71.4258 24.9736C74.0205 24.9736 74.1413 24.9576 74.1413 24.6129C74.1413 24.3562 74.0205 24.252 73.7233 24.252C73.4933 24.252 73.1472 24.137 72.9539 23.9963C72.621 23.7538 72.5998 23.442 72.55 18.0506C72.4989 12.5277 72.5082 12.35 72.8668 11.9927C73.0699 11.7903 73.4398 11.6246 73.6887 11.6246C74.0205 11.6246 74.1413 11.5285 74.1413 11.2639C74.1413 10.9191 74.0205 10.9031 71.4258 10.9031C68.831 10.9031 68.7103 10.9191 68.7103 11.2639ZM87.6662 11.2639C87.7248 11.4874 87.9131 11.6246 88.1608 11.6246C88.3807 11.6246 88.7388 11.8135 88.9566 12.0446C89.1778 12.2791 90.4155 15.2446 91.7613 18.7642L94.1703 25.0638L94.8019 25.1178L95.4335 25.1717L97.1258 20.6982C98.0567 18.2378 98.9159 16.03 99.0354 15.7919C99.2401 15.3842 99.2857 15.4463 99.8297 16.8742C100.147 17.7077 100.992 19.9115 101.707 21.7717L103.008 25.154H103.581C103.896 25.154 104.195 25.0462 104.246 24.9143C104.297 24.7826 105.129 22.6516 106.095 20.179C107.061 17.7065 108.13 14.9673 108.472 14.092C109.251 12.0989 109.407 11.8528 110.027 11.6373C110.303 11.5415 110.529 11.3371 110.529 11.1831C110.529 10.9457 110.199 10.9031 108.356 10.9031C106.305 10.9031 106.184 10.9231 106.184 11.2639C106.184 11.5253 106.305 11.6246 106.622 11.6246C107.325 11.6246 107.632 11.8151 107.632 12.2522C107.632 12.617 104.184 21.9757 103.972 22.1873C103.841 22.3173 100.727 13.6238 100.615 12.8149C100.506 12.0291 100.841 11.6246 101.602 11.6246C101.899 11.6246 102.02 11.5206 102.02 11.2639C102.02 10.9186 101.899 10.9031 99.2142 10.9031C96.529 10.9031 96.4082 10.9186 96.4082 11.2639C96.4082 11.4695 96.529 11.6246 96.6888 11.6246C97.254 11.6246 98.0031 12.1687 98.1957 12.7193C98.4722 13.5092 98.2607 14.3101 96.6331 18.6413L95.2503 22.3208L94.9525 21.6178C94.7887 21.2312 93.9362 18.95 93.0584 16.5486C91.3335 11.831 91.308 11.6246 92.4476 11.6246C92.8479 11.6246 92.9686 11.5411 92.9686 11.2639C92.9686 10.9191 92.8479 10.9031 90.2701 10.9031C87.6607 10.9031 87.5748 10.915 87.6662 11.2639ZM124.329 11.3861C124.329 11.3861 124.328 11.6323 124.359 11.7009C124.389 11.7694 124.584 11.7951 124.584 11.7951C124.705 11.8276 124.82 11.856 124.928 11.8829C125.475 12.0184 125.86 12.1136 126.013 12.4728C126.117 12.7154 126.123 13.5591 126.125 18.0821C126.126 22.8515 126.125 23.436 125.997 23.7511C125.839 24.142 125.536 24.3495 124.837 24.5457C124.837 24.5457 124.528 24.6317 124.445 24.7086C124.362 24.7856 124.346 24.9573 124.346 24.9573C124.346 24.9573 124.34 25.1168 124.411 25.1934C124.482 25.2699 124.672 25.2334 124.672 25.2334L126.484 25.2382L129.489 25.2625C129.489 25.2625 129.612 25.2787 129.675 25.1975C129.739 25.1162 129.723 24.9569 129.723 24.9569C129.723 24.9569 129.723 24.7865 129.643 24.7098C129.564 24.6331 129.257 24.5611 129.257 24.5611C128.579 24.3941 128.231 24.1765 128.077 23.8231C127.962 23.5605 127.95 22.8514 127.933 21.3747V19.2096C128.008 19.2524 128.078 19.3009 128.151 19.3521C128.497 19.5945 128.931 19.898 130.551 19.9448C132.514 20.0017 133.695 19.1283 134.397 18.1139C135.099 17.0994 135.372 15.5057 134.857 13.808C134.341 12.1103 132.83 11.0829 130.704 10.9767C129.596 10.9213 127.985 10.976 127.084 11.0168L126.832 11.0282C126.013 11.0639 125.032 11.1421 124.544 11.1886L124.542 11.1887C124.409 11.2014 124.396 11.2026 124.359 11.2499C124.322 11.2973 124.329 11.3861 124.329 11.3861ZM132.305 18.0365C133.095 17.2943 133.108 16.1332 133.108 15.3915C133.03 14.2285 132.562 11.9919 129.907 11.9919C129.286 11.96 128.017 12.0671 127.982 12.928C127.943 13.0801 127.926 14.1439 127.936 15.7766L127.951 18.3824L128.222 18.5247L128.236 18.5324C128.383 18.6098 128.573 18.7102 128.906 18.7754C129.961 18.982 131.516 18.7788 132.305 18.0365ZM115.696 11.1281C115.893 11.0536 116.023 11.0039 116.023 11.0039C116.023 11.0039 116.317 10.8831 116.411 11.0039C116.441 11.041 116.547 11.3159 116.811 11.9972L116.986 12.447C117.379 13.4608 117.945 14.9162 118.242 15.681C118.54 16.4459 119.128 17.9594 119.55 19.0444C119.971 20.1295 120.513 21.5214 120.753 22.1376C120.992 22.7538 121.299 23.3946 121.385 23.5115C121.427 23.5689 121.47 23.6402 121.517 23.7184C121.702 24.0253 121.951 24.4372 122.45 24.5177C122.45 24.5177 122.84 24.5824 122.898 24.6436C122.956 24.7049 122.969 24.8161 122.969 24.8161V25.0252C122.969 25.0252 122.963 25.0787 122.931 25.1241C122.898 25.1694 122.78 25.1568 122.78 25.1568L119.768 25.157L117.624 25.1725C117.624 25.1725 117.549 25.1816 117.505 25.1451C117.461 25.1086 117.438 25.0163 117.438 25.0163V24.8589C117.438 24.8589 117.42 24.7404 117.505 24.6375C117.591 24.5345 117.935 24.5225 117.935 24.5225C118.584 24.4662 118.841 23.9135 118.974 23.6289L118.975 23.6274L118.975 23.6261C118.985 23.6059 118.994 23.5872 119.002 23.57C119.143 23.2759 119.092 23.0843 118.454 21.5119C118.032 20.4742 117.889 20.1827 117.786 20.1569C117.715 20.1387 116.593 20.132 115.295 20.1419L112.934 20.1599L112.792 20.548C112.384 21.6705 112.022 22.7857 111.967 23.0872C111.856 23.7006 112.011 24.3829 112.913 24.5016C112.913 24.5016 113.247 24.5476 113.337 24.6149C113.426 24.6822 113.457 24.8548 113.457 24.8548V25.0137C113.457 25.0137 113.44 25.0894 113.379 25.1403C113.317 25.1913 113.158 25.1727 113.158 25.1727H110.904L108.724 25.1975C108.724 25.1975 108.631 25.1953 108.562 25.1589C108.494 25.1224 108.483 25.0492 108.483 25.0492V24.8981C108.483 24.8981 108.471 24.8001 108.592 24.6801C108.714 24.5602 109.041 24.5281 109.041 24.5281C109.637 24.4321 109.975 23.7978 110.169 23.4327L110.171 23.4287C110.185 23.4032 110.198 23.3791 110.21 23.3566C110.287 23.2145 110.634 22.385 110.982 21.5134C111.329 20.6418 111.719 19.6668 111.848 19.3466C112.287 18.2579 112.705 17.215 113.336 15.6274C113.683 14.7558 114.197 13.4693 114.477 12.7685L114.988 11.4942L115.696 11.1281ZM115.511 14.2255C115.62 14.5011 115.787 14.9159 115.882 15.1471C115.978 15.3783 116.244 16.0332 116.474 16.6024C116.705 17.1716 116.988 17.8643 117.104 18.1417C117.219 18.4192 117.314 18.6593 117.314 18.6753C117.314 18.6914 116.446 18.7046 115.385 18.7046C114.168 18.7046 113.457 18.6812 113.457 18.6412C113.457 18.6063 113.498 18.4681 113.548 18.334C113.627 18.1206 114.023 16.9883 114.897 14.4735C115.032 14.0852 115.157 13.7427 115.175 13.7125C115.236 13.6089 115.312 13.7243 115.511 14.2255ZM12.9915 15.1822C13.5767 16.2172 12.2678 16.538 11.6536 16.5971C10.7229 16.6879 10.5302 16.1491 10.712 15.4721C10.7717 15.2298 10.9041 15.0117 11.0913 14.8475C11.2785 14.6833 11.5115 14.581 11.7586 14.5543C12.0021 14.5319 12.2469 14.5789 12.465 14.69C12.6831 14.8011 12.8656 14.9717 12.9915 15.1822ZM21.0442 17.9937C18.7171 17.0451 16.2829 16.0528 16.6453 13.2679C17.4223 14.1012 18.6419 14.276 19.9684 14.4661C21.1717 14.6385 22.4629 14.8235 23.5915 15.5241C26.2545 17.1761 25.8656 20.3856 24.961 21.5669C25.0426 19.6235 23.0846 18.8254 21.0442 17.9937ZM21.8183 11.1967L21.8182 11.1966L21.8181 11.1965C21.7945 11.1751 21.7708 11.1538 21.7475 11.1325C21.7655 11.149 21.7836 11.1658 21.8016 11.1825C21.8441 11.2219 21.8865 11.2612 21.9284 11.297C21.8924 11.2635 21.8557 11.2304 21.8191 11.1974L21.8186 11.197L21.8185 11.1969L21.8184 11.1968L21.8183 11.1967ZM11.4918 8.40814C11.1065 7.96107 10.5086 7.72663 9.92244 7.64121C9.90051 7.78784 9.88662 7.93558 9.88083 8.08374C9.8546 9.30411 10.2861 10.6444 11.121 11.5758C11.388 11.8769 11.7102 12.1237 12.0699 12.3028C12.2779 12.4045 12.8297 12.6572 13.0341 12.43C13.0497 12.4092 13.0595 12.3846 13.0625 12.3587C13.0655 12.3329 13.0617 12.3067 13.0513 12.2828C13.0174 12.1855 12.952 12.0972 12.887 12.0096C12.8409 11.9475 12.7951 11.8856 12.761 11.8212C12.7264 11.7561 12.6894 11.6928 12.6525 11.6294L12.6525 11.6294L12.6525 11.6294L12.6525 11.6294L12.6525 11.6294L12.6525 11.6294L12.6525 11.6294C12.5831 11.5104 12.5138 11.3916 12.4606 11.2623C12.3205 10.924 12.2475 10.5641 12.1747 10.2055L12.1747 10.2055C12.1601 10.1336 12.1456 10.0618 12.1305 9.99016C12.0192 9.43677 11.8772 8.85522 11.4918 8.40814ZM19.7253 18.1434C19.1275 19.8191 20.0917 21.2345 21.0501 22.6415C22.1222 24.2154 23.1871 25.7789 22.0509 27.6846C24.259 26.7686 25.3074 24.0016 24.391 21.8063C23.8136 20.4177 22.422 19.6649 21.1303 18.9662C20.6291 18.6951 20.143 18.4321 19.7253 18.1434ZM13.2513 22.1458C12.8512 22.3098 12.4739 22.5251 12.1288 22.7864C12.9135 22.5006 13.7371 22.3372 14.5711 22.3021C14.7224 22.2931 14.8746 22.2861 15.0282 22.279C15.2934 22.2667 15.5625 22.2542 15.8375 22.2312C16.2882 22.2005 16.7327 22.1088 17.159 21.9586C17.6058 21.8016 18.0123 21.5471 18.3494 21.2135C18.69 20.8691 18.9289 20.4366 19.0396 19.964C19.137 19.5176 19.1233 19.054 18.9998 18.6142C18.8762 18.1743 18.6467 17.7719 18.3314 17.4424C18.4835 17.83 18.5771 18.2383 18.6091 18.6537C18.6366 19.0404 18.5843 19.4287 18.4553 19.7941C18.3294 20.1404 18.1235 20.4519 17.8546 20.7028C17.5769 20.9562 17.2553 21.1564 16.9058 21.2935C16.42 21.49 15.8707 21.5705 15.2985 21.6542C15.0375 21.6925 14.7717 21.7314 14.5051 21.7823C14.0761 21.8613 13.6562 21.983 13.2513 22.1458ZM20.2312 29.027L20.1857 29.0636L20.1506 29.092L20.1505 29.092C20.0494 29.1737 19.9466 29.2568 19.8359 29.3315C19.6948 29.4248 19.547 29.5075 19.3936 29.5786C19.0743 29.7351 18.7231 29.8151 18.3678 29.8121C17.4054 29.794 16.7251 29.0743 16.3271 28.261C16.2228 28.0479 16.1309 27.8281 16.0389 27.6084L16.0389 27.6083C15.8918 27.2566 15.7447 26.9049 15.5465 26.58C15.0861 25.8248 14.2982 25.2169 13.3756 25.3296C12.9993 25.3769 12.6465 25.5468 12.4375 25.8748C11.8876 26.7317 12.6772 27.9321 13.684 27.7622C13.7696 27.7491 13.8534 27.7259 13.9337 27.6931C14.0136 27.6589 14.0883 27.6133 14.1553 27.5577C14.2959 27.4401 14.4019 27.2861 14.4619 27.1124C14.5281 26.9313 14.5428 26.7353 14.5044 26.5463C14.4632 26.3488 14.347 26.1751 14.1806 26.062C14.3741 26.153 14.5249 26.3159 14.6012 26.5163C14.6804 26.7226 14.7008 26.947 14.66 27.1642C14.6205 27.3906 14.5212 27.6021 14.3724 27.7767C14.2933 27.8665 14.202 27.9445 14.101 28.0084C14.001 28.0716 13.8938 28.1225 13.7817 28.1602C13.5545 28.2382 13.3126 28.2633 13.0743 28.2338C12.7398 28.1859 12.4242 28.0484 12.1607 27.8358C12.114 27.7986 12.069 27.7597 12.0253 27.7195C11.8433 27.5624 11.6782 27.3862 11.533 27.194C11.4692 27.1235 11.4044 27.054 11.3367 26.987C11.0142 26.6471 10.6337 26.368 10.2132 26.1629C9.92326 26.0349 9.6198 25.9404 9.30865 25.8812C9.15216 25.8485 8.99387 25.8248 8.83557 25.8048C8.81836 25.8031 8.78519 25.7973 8.74396 25.7901L8.74393 25.7901L8.7439 25.7901L8.74384 25.7901L8.74382 25.7901C8.61164 25.767 8.39677 25.7296 8.35886 25.7649C8.84814 25.3124 9.3815 24.9106 9.95089 24.5654C10.5355 24.2169 11.1632 23.9471 11.8179 23.763C12.4967 23.5711 13.2066 23.5164 13.9065 23.6022C14.2668 23.6457 14.6197 23.7373 14.9558 23.8748C15.308 24.0161 15.633 24.2178 15.9165 24.4709C16.197 24.7364 16.4237 25.0539 16.584 25.4059C16.7288 25.7355 16.8368 26.0802 16.9061 26.4337C16.9432 26.6239 16.9712 26.8329 17.0001 27.0492C17.132 28.0349 17.2843 29.1723 18.414 29.3705C18.4858 29.3845 18.5582 29.3948 18.6311 29.4014L18.8563 29.4069C19.0111 29.3958 19.165 29.3736 19.3167 29.3405C19.631 29.2663 19.9373 29.1613 20.2312 29.027ZM11.5827 27.2493C11.6179 27.29 11.6537 27.3302 11.69 27.37C11.6741 27.3522 11.6583 27.3343 11.6424 27.3165C11.6225 27.2941 11.6026 27.2717 11.5827 27.2493Z" fill="#FF007A"/>
</svg>
